<?xml version="1.0" encoding="UTF-8"?>
<!-- Generated by Pixelmator Pro 3.6.18 -->
<svg width="600" height="700" viewBox="0 0 600 700" xmlns="http://www.w3.org/2000/svg">
    <path id="Path" fill="#74826e" stroke="none" d="M 212.013763 570.637939 L 209.280426 570.637939 C 201.072083 569.871216 194.230408 562.108765 194.230408 552.042114 L 194.230408 46.725403 C 194.230408 36.654541 201.759583 28.125427 210.647095 28.125427 L 212.705414 28.125427 L 300.24292 28.125427 C 432.24707 28.125427 539.630432 150.57959 539.630432 300.154602 C 539.630432 449.746246 432.24707 570.637939 300.24292 570.637939 Z"/>
    <path id="path1" fill="#2e4030" stroke="none" d="M 299.743774 671.875 C 167.756256 671.875 60.368744 550.958374 60.368744 401.383331 C 60.368744 251.804138 167.756256 129.345825 299.743774 129.345825 L 387.289612 129.345825 L 389.34375 129.345825 C 398.231262 129.345825 405.760437 137.87085 405.760437 147.94165 L 405.760437 653.262512 C 405.760437 663.337524 398.922913 671.087524 390.7146 671.875 L 387.981262 671.875 Z"/>
    <path id="path2" fill="none" stroke="#74826e" stroke-width="12.5" d="M 212.013763 570.637939 L 209.280426 570.637939 C 201.072083 569.871216 194.230408 562.108765 194.230408 552.042114 L 194.230408 46.729614 C 194.230408 36.654541 201.759583 28.129578 210.647095 28.129578 L 212.705414 28.129578 L 300.24707 28.129578 C 432.24707 28.129578 539.630432 150.57959 539.630432 300.154602 C 539.630432 449.746246 432.24707 570.637939 300.24707 570.637939 L 212.013763 570.637939 Z"/>
</svg>
